# xmcd
#
# Track frame offsets:
#	150
#	18240
#	30964
#	46382
#	63027
#	84923
#	102377
#	115137
#	130103
#	146387
#	161429
#	179778
#	193733
#	211469
#	226265
#	241035
#	257592
#	273056
#	287460
#	303878
#	322838
#	340329
#
# Disc length: 4721 seconds
#
# Revision: 0
# Processed by: cddbd v1.5.2PL0 Copyright (c) Steve Scherf et al.
# Submitted via: audiograbber 1.83.01
#
DISCID=1c126f16
DTITLE=Various Artist - ERG NCT 171
DYEAR=2008
DGENRE=Country
TTITLE0=Rascal Flatts - Bob That Head
TTITLE1=Kenny Chesney - Everybody Wants To Go To Heaven
TTITLE2=Shane Yellowbird - Life Is Calling My Name
TTITLE3=Tim McGraw - Let It Go
TTITLE4=Dierks Bentley - Sweet and Wild
TTITLE5=Trace Adkins - Muddy Water
TTITLE6=Gord Bamford - Postcard From Pasadena
TTITLE7=Lisa Brokop - Break It
TTITLE8=Josh Turner - Everything Is fine
TTITLE9=Codie Prevost - Good Livin'
TTITLE10=Alan Jackson - Country Boy
TTITLE11=Randy Houser - Anything Goes
TTITLE12=LeAnn Rimes - What I Cannot Change
TTITLE13=Willie Mack - Headlights And Tailpipes
TTITLE14=The Higgins - Real Thing
TTITLE15=Brooks and Dunn - Cowgirls Don't Cry
TTITLE16=Tara Oram - Fly Girl
TTITLE17=Trailer Choir - Off The Hillbilly Hook
TTITLE18=Zac Brown Band - Chicken Fried
TTITLE19=Ridley Bent - Buckles And Boots
TTITLE20=Billy Currington - Don't
TTITLE21=Trent Willmon - Cold Beer And A Fishin' Pole
EXTD=
EXTT0=
EXTT1=
EXTT2=
EXTT3=
EXTT4=
EXTT5=
EXTT6=
EXTT7=
EXTT8=
EXTT9=
EXTT10=
EXTT11=
EXTT12=
EXTT13=
EXTT14=
EXTT15=
EXTT16=
EXTT17=
EXTT18=
EXTT19=
EXTT20=
EXTT21=
PLAYORDER=
